<svg id="Calque_1" data-name="Calque 1" xmlns="http://www.w3.org/2000/svg" viewBox="0 0 89.05 62.46"><defs><style>.cls-1{fill:#6e7b88;}</style></defs><title>01</title><path class="cls-1" d="M19.12,0A12.59,12.59,0,1,0,31.71,12.59,12.59,12.59,0,0,0,19.12,0Zm0,22.18a9.59,9.59,0,1,1,9.59-9.59A9.59,9.59,0,0,1,19.12,22.18Z"/><path class="cls-1" d="M0,43.23H3A11.35,11.35,0,0,1,14.33,31.86H23.9a11.32,11.32,0,0,1,3.42.53L28,29.46a14.26,14.26,0,0,0-4.09-.6H14.34A14.35,14.35,0,0,0,0,43.22Z"/><path class="cls-1" d="M82.53,12.59A12.59,12.59,0,1,0,69.94,25.18h0A12.6,12.6,0,0,0,82.53,12.59Zm-22.18,0a9.59,9.59,0,1,1,9.59,9.59A9.59,9.59,0,0,1,60.35,12.59Z"/><path class="cls-1" d="M74.72,28.86H65.16a14.29,14.29,0,0,0-4.07.6l.63,2.94a11.27,11.27,0,0,1,3.45-.54h9.56A11.35,11.35,0,0,1,86.05,43.23h3A14.35,14.35,0,0,0,74.72,28.86Z"/><path class="cls-1" d="M56.8,31.86a12.51,12.51,0,1,0,0,.16Q56.8,31.94,56.8,31.86Zm-22.18,0a9.59,9.59,0,1,1,9.59,9.59A9.59,9.59,0,0,1,34.62,31.86Z"/><path class="cls-1" d="M61.83,62.46h1.5A14.35,14.35,0,0,0,49,48.13H39.44A14.35,14.35,0,0,0,25.1,62.46h3A11.35,11.35,0,0,1,39.44,51.13H49A11.35,11.35,0,0,1,60.33,62.46Z"/></svg>