<svg id="Calque_1" data-name="Calque 1" xmlns="http://www.w3.org/2000/svg" viewBox="0 0 78 70.25"><defs><style>.cls-1{fill:#6e7b88;}</style></defs><title>03</title><path class="cls-1" d="M6,.25a6,6,0,0,0-6,6v58a6,6,0,0,0,6,6H72a6,6,0,0,0,6-6v-58a6,6,0,0,0-6-6Zm0,4H72a2,2,0,0,1,2,2V47.41L61.41,34.81a2.08,2.08,0,0,0-2.87.06L45.94,48.34,26.41,28.81a2,2,0,0,0-2.75-.06L4,46.69V6.25A2,2,0,0,1,6,4.25Zm39,4a10,10,0,1,0,10,10A10,10,0,0,0,45,8.25Zm0,4a6,6,0,1,1-6,6A6,6,0,0,1,45,12.25ZM24.94,33,44.59,52.66a2.08,2.08,0,0,0,2.88-.06L60.06,39.13,74,53.06V64.25a2,2,0,0,1-2,2H6a2,2,0,0,1-2-2V52.13Z"/></svg>