<svg id="Calque_1" data-name="Calque 1" xmlns="http://www.w3.org/2000/svg" viewBox="0 0 4.59 5.15"><defs><style>.cls-1{fill:#6e7b88;}</style></defs><title>04</title><path class="cls-1" d="M.71,2.47V4.08H.55V2.35h0a2.11,2.11,0,0,1,1,0,1.2,1.2,0,0,1,.72.49,1.64,1.64,0,0,1,.27.75h0v.55H2.45V3.53a1.46,1.46,0,0,0-.24-.67,1,1,0,0,0-.63-.42A1.87,1.87,0,0,0,.71,2.47Z"/><polygon class="cls-1" points="4.06 0.19 1.96 2.53 1.84 2.43 3.95 0.08 4.06 0.19"/><polygon class="cls-1" points="4.15 0.58 2.58 3.46 2.44 3.39 4 0.5 4.15 0.58"/><path class="cls-1" d="M2.28,2.74a.08.08,0,0,0,0,.16L2.82,3h0a.08.08,0,0,0,.09-.12l-.31-.9.63.2h0A.08.08,0,0,0,3.32,2L3.06,1.4l.63,0h0a.08.08,0,0,0,.07-.09h0L3.61.78,4.09.66a.08.08,0,0,0,0-.15L3.54.65h0a.08.08,0,0,0-.05.1h0l.1.4-.68.08h0a.08.08,0,0,0,0,.1h0l.24.6-.64-.18h0a.08.08,0,0,0,0,.1h0l.29.94Z"/><path class="cls-1" d="M.26,4H2.91a.26.26,0,0,1,.26.26v.6a.26.26,0,0,1-.23.29H.26A.26.26,0,0,1,0,4.89H0v-.6A.26.26,0,0,1,.26,4Zm2.65.15H.26a.1.1,0,0,0-.1.1v.6a.1.1,0,0,0,.1.1H2.91a.1.1,0,0,0,.1-.1v-.6A.1.1,0,0,0,2.91,4.15Z"/><path class="cls-1" d="M4.14,0a.3.3,0,1,1-.3.3.3.3,0,0,1,.3-.3Zm.14.3a.14.14,0,1,0,0,.1.14.14,0,0,0,0-.09Z"/><path class="cls-1" d="M4.37.53a.08.08,0,1,0-.16,0h0V3.62a.08.08,0,0,0,.08.08h0a.2.2,0,0,1,0,.39h0a.2.2,0,0,1-.2-.2h0a.08.08,0,0,0-.16,0h0a.35.35,0,0,0,.34.36h0a.36.36,0,0,0,.08-.7h0ZM4.21,3.62Z"/><path class="cls-1" d="M4.07,3.21a.08.08,0,0,0,0,.16h.44a.08.08,0,0,0,0-.16Z"/><path class="cls-1" d="M2,3.7a.08.08,0,0,0,.16,0l-.08.08H1A.08.08,0,0,1,1,3.7H1V2.77A.08.08,0,0,1,1,2.68v0a1.22,1.22,0,0,1,.6,0A.71.71,0,0,1,2.05,3a1,1,0,0,1,.16.44h0v.31h0Zm0-.08V3.39A.78.78,0,0,0,1.91,3a.55.55,0,0,0-.33-.22,1,1,0,0,0-.46,0V3.6Z"/><path class="cls-1" d="M.4,4.52a.08.08,0,1,0,0,.16H.78a.08.08,0,1,0,0-.16H.4Z"/><path class="cls-1" d="M1.06,4.52a.08.08,0,0,0,0,.16h.38a.08.08,0,0,0,0-.16H1.06Z"/><path class="cls-1" d="M1.72,4.52a.08.08,0,0,0,0,.16H2.1a.08.08,0,0,0,0-.16H1.72Z"/><path class="cls-1" d="M2.39,4.52a.08.08,0,0,0,0,.16h.38a.08.08,0,0,0,0-.16H2.39Z"/><polygon class="cls-1" points="2.12 3.54 2.18 3.54 2.18 3.62 2.18 3.68 2.18 3.7 2.18 3.73 2.16 3.74 2.14 3.75 2.11 3.78 2.11 3.78 2.1 3.78 2.08 3.78 2 3.75 1.94 3.75 1.93 3.73 1.93 3.62 2.12 3.64 2.12 3.54"/></svg>