<svg id="Calque_1" data-name="Calque 1" xmlns="http://www.w3.org/2000/svg" viewBox="0 0 32.11 32.01"><defs><style>.cls-1{fill:#6e7b88;}</style></defs><title>Plan de travail 1</title><path class="cls-1" d="M14.42,31a24.61,24.61,0,0,1-7.78-1.41A1,1,0,0,1,6,29c-2.73-6.5-2.55-12.55.5-17.47C10.62,5,19.55.75,31,0A1,1,0,0,1,32.1.93s0,0,0,.07c0,9.49-1.59,21.94-9.14,27.38A14.27,14.27,0,0,1,14.42,31Zm-6.7-3.16c5.78,1.85,10.52,1.48,14.09-1.09C27,23,29.94,14.27,30.11,2.08,19.79,3,11.85,6.77,8.24,12.61Q4.23,19.08,7.72,27.84Z"/><path class="cls-1" d="M1.11,32a1,1,0,1,1-.2-2h0c.1,0,10.4-2.29,18.61-16.66a1,1,0,0,1,1.74,1C12.57,29.57,1.76,31.89,1.31,32Z"/></svg>