<svg id="Calque_1" data-name="Calque 1" xmlns="http://www.w3.org/2000/svg" viewBox="0 0 69.97 46.03"><defs><style>.cls-1{fill:#6e7b88;}</style></defs><title>06</title><path class="cls-1" d="M11.81,0a1,1,0,0,0-.62.41l-11,15a1,1,0,0,0,.16,1.34l11.22,9.5A5,5,0,0,0,13,36,4.92,4.92,0,0,0,15,35.56a3.9,3.9,0,0,0,5,3.31V39a4,4,0,0,0,4,4,3.92,3.92,0,0,0,2.06-.59A4,4,0,0,0,30,46,3.94,3.94,0,0,0,32.63,45,5.5,5.5,0,0,0,36,46a5.51,5.51,0,0,0,5-4.5,4.34,4.34,0,0,0,2,.5,4.51,4.51,0,0,0,4.31-3.34A4.3,4.3,0,0,0,49,39a4.54,4.54,0,0,0,4.44-3.87l.25.19a4.73,4.73,0,0,0,2.59.69A4.5,4.5,0,0,0,61,31.22a5.28,5.28,0,0,0-2.37-4h-.06l-.84-.69,11.91-9.72a1,1,0,0,0,.19-1.34l-11-15a1,1,0,0,0-1-.41h-.16C51.55,2.14,48,2,41,2a10.67,10.67,0,0,0-6,1.78A10.6,10.6,0,0,0,29,2c-7,0-10.58.11-16.66-2A1,1,0,0,0,11.81,0Zm.59,2.13C18.31,4,22.28,4,29,4a8.2,8.2,0,0,1,4.47,1.19l-8.22,9.13a1,1,0,0,0-.19,1A5.21,5.21,0,0,0,28,18.62a6.49,6.49,0,0,0,3.09.38,6.34,6.34,0,0,0,2.5-1c.89-.5,1.86-1.16,2.75-1.78,1.42-1,2.18-1.62,2.63-2L57.35,28.81h.06A3.92,3.92,0,0,1,59,31.22h0a2.73,2.73,0,0,1-.78,2.09,2.78,2.78,0,0,1-1.94.69,4,4,0,0,1-1.5-.37c.1.06-.26-.19-.66-.5L52.5,31.88,48,28.34l-6.41-5.09a1,1,0,0,0-1.3,1.52l0,0h0l6.41,5.09,4.53,3.59.41.31a1,1,0,0,0-.22.63A2.54,2.54,0,0,1,49,37a2.41,2.41,0,0,1-1.41-.47l-.44-.34L46,35.35c-.86-.7-2-1.63-3.06-2.53-2.2-1.81-4.37-3.56-4.37-3.56a1,1,0,1,0-1.25,1.53s2.14,1.79,4.34,3.59l3.09,2.53c.28.23.47.36.69.53A2.54,2.54,0,0,1,43,40h0a2.41,2.41,0,0,1-1.41-.47c-.14-.1-4.45-3.24-7-5.31a1,1,0,1,0-1.25,1.53c2,1.57,4.2,3.25,5.66,4.34V41a3.08,3.08,0,0,1-1,2,3.17,3.17,0,0,1-2,1,3,3,0,0,1-2.25-.69A3.93,3.93,0,0,0,30,38a3.92,3.92,0,0,0-2.06.59,3.89,3.89,0,0,0-5-3.44V35a3.9,3.9,0,0,0-5-3.84V31a5,5,0,0,0-3.25-4.66l-.09-.12L2.35,15.84Zm45.13,0L67.6,15.87,56.1,25.25l-16.5-13a1,1,0,0,0-1.25,0s-1.48,1.17-3.19,2.38c-.86.6-1.76,1.21-2.56,1.66a7.27,7.27,0,0,1-1.72.75,4.82,4.82,0,0,1-2.16-.28,3,3,0,0,1-1.53-1.56l8.38-9.34h0A8.41,8.41,0,0,1,41,4C47.66,4,51.63,4,57.53,2.16ZM13,28a3,3,0,1,1-3,3A3,3,0,0,1,13,28Zm6,5a2,2,0,1,1-2,2A2,2,0,0,1,19,33Zm5,4a2,2,0,1,1-2,2A2,2,0,0,1,24,37Zm6,3a2,2,0,1,1-2,2A2,2,0,0,1,30,40Z"/></svg>