<svg id="Calque_1" data-name="Calque 1" xmlns="http://www.w3.org/2000/svg" viewBox="0 0 67.29 57.33"><defs><style>.cls-1{fill:#6e7b88;}</style></defs><title>07</title><path class="cls-1" d="M67.29,11.12A3.61,3.61,0,0,0,63.92,8.5H48.64V5.28A5.27,5.27,0,0,0,43.38,0H24a5.27,5.27,0,0,0-5.28,5.26s0,0,0,0V8.5H3.48A3.47,3.47,0,0,0,.11,11.08L0,11.3V24.16a12.43,12.43,0,0,0,.79,4.16V53.93a3.5,3.5,0,0,0,3.48,3.48H63a3.5,3.5,0,0,0,3.48-3.48V28.31a10.16,10.16,0,0,0,.79-4.16v-13ZM22.13,5.39A2,2,0,0,1,24,3.5H43.36a2,2,0,0,1,1.91,1.91V8.5H22.13ZM63.25,53.93c0,.11-.11.11,0,0L4.36,54c-.11,0-.11,0-.11-.11V32.81a11.24,11.24,0,0,0,6.85,2.36H28.53V37a5.28,5.28,0,1,0,10.56,0h0v-1.8H56.51a11.24,11.24,0,0,0,6.85-2.36V53.93Zm-31.46-17v-4.8a1.91,1.91,0,0,1,3.82,0V37a2,2,0,0,1-1.91,1.91A1.89,1.89,0,0,1,31.79,37s0,0,0,0ZM64,24.16a7.65,7.65,0,0,1-7.67,7.63H39a5.37,5.37,0,0,0-5.28-4.94,5.29,5.29,0,0,0-5.28,4.94H11a7.65,7.65,0,0,1-7.65-7.63V12H64Z"/></svg>