<svg id="Calque_1" data-name="Calque 1" xmlns="http://www.w3.org/2000/svg" viewBox="0 0 54.17 93.83"><defs><style>.cls-1{fill:#6e7b88;}</style></defs><title>Plan de travail 1</title><path class="cls-1" d="M46.17,0h-38a8,8,0,0,0-8,8V86a8,8,0,0,0,8,8h38a8,8,0,0,0,8-8V8A8,8,0,0,0,46.17,0Zm-38,4h38a4,4,0,0,1,4,4V70h-46V8A4,4,0,0,1,8.17,4Zm38,86h-38a4,4,0,0,1-4-4V74h46V86A4,4,0,0,1,46.17,90Z"/><rect class="cls-1" x="22.17" y="10" width="10" height="4"/><circle class="cls-1" cx="27.17" cy="82" r="2"/></svg>